<svg width="128" height="128" viewBox="0 0 128 128" fill="none" xmlns="http://www.w3.org/2000/svg">
<path d="M0 68.0369L68.0369 0H88.0246L0 88.0246V68.0369Z" fill="#DEDEDE"/>
<path d="M0 4.03692L4.03692 0H24.0246L0 24.0246V4.03692Z" fill="#DEDEDE"/>
<path d="M0 36.0369L36.0369 0H56.0246L0 56.0246V36.0369Z" fill="#DEDEDE"/>
<path d="M0 100.037L100.037 0H120.025L0 120.025V100.037Z" fill="#DEDEDE"/>
<path d="M4.03711 128L128 4.03711V24.0248L24.0248 128H4.03711Z" fill="#DEDEDE"/>
<path d="M36.0371 128L128 36.0371V56.0248L56.0248 128H36.0371Z" fill="#DEDEDE"/>
<path d="M68.0371 128L128 68.0371V88.0248L88.0248 128H68.0371Z" fill="#DEDEDE"/>
<path d="M100.037 128L128 100.037V120.025L120.025 128H100.037Z" fill="#DEDEDE"/>
</svg>
