<svg width="48" height="56" viewBox="0 0 48 56" fill="none" xmlns="http://www.w3.org/2000/svg">
<path d="M12.7071 47.2929C6.97947 41.5653 1.19679 32.0426 1.00491 16.7838C1.08823 16.7597 1.17671 16.733 1.26988 16.7036C1.9163 16.4995 2.79691 16.1607 3.74614 15.6182C5.52647 14.6009 7.56858 12.8528 8.723 9.93612C14.5987 9.31537 18.5952 7.0565 21.1476 4.88694C22.4653 3.76698 23.392 2.67629 23.9934 1.8577C23.9956 1.85469 23.9978 1.85169 24 1.84869C24.0022 1.85169 24.0044 1.85469 24.0066 1.8577C24.608 2.67629 25.5348 3.76698 26.8524 4.88694C29.4048 7.0565 33.4013 9.31537 39.277 9.93612C40.4314 12.8527 42.4735 14.6009 44.2539 15.6182C45.2031 16.1607 46.0837 16.4995 46.7301 16.7036C46.8233 16.733 46.9118 16.7597 46.9951 16.7838C46.8032 32.0426 41.0205 41.5653 35.2929 47.2929C32.3708 50.215 29.4498 52.1617 27.2644 53.3758C26.1722 53.9826 25.2656 54.4053 24.6373 54.6746C24.3732 54.7878 24.1585 54.8738 24 54.9349C23.8415 54.8738 23.6268 54.7878 23.3627 54.6746C22.7344 54.4053 21.8278 53.9826 20.7356 53.3758C18.5502 52.1617 15.6292 50.215 12.7071 47.2929Z" stroke="black" stroke-width="2"/>
<line x1="23.6464" y1="48.6464" x2="45.6464" y2="26.6464" stroke="black"/>
<line x1="23.6464" y1="42.6464" x2="46.6464" y2="19.6464" stroke="black"/>
<path d="M23.6465 36.6465L44.5 15.7929" stroke="black"/>
<line x1="23.6464" y1="30.6464" x2="41.6464" y2="12.6464" stroke="black"/>
<line x1="23.6464" y1="24.6464" x2="38.6464" y2="9.64645" stroke="black"/>
<line x1="23.6464" y1="18.6464" x2="33.6464" y2="8.64645" stroke="black"/>
<line x1="23.6464" y1="12.6464" x2="29.6464" y2="6.64645" stroke="black"/>
<line x1="23.6464" y1="6.64645" x2="26.6464" y2="3.64645" stroke="black"/>
</svg>
