<svg width="12" height="12" viewBox="0 0 12 12" fill="none" xmlns="http://www.w3.org/2000/svg">
<path d="M6 0C4.37 0 4.1665 0.0075 3.5265 0.036C2.8875 0.066 2.4525 0.1665 2.07 0.315C1.6755 0.468 1.3405 0.6735 1.007 1.007C0.6735 1.3405 0.4675 1.675 0.315 2.07C0.1665 2.4525 0.0655 2.8875 0.036 3.5265C0.006 4.1665 0 4.37 0 6C0 7.63 0.0075 7.8335 0.036 8.4735C0.066 9.112 0.1665 9.5475 0.315 9.93C0.468 10.324 0.6735 10.6595 1.007 10.993C1.3405 11.326 1.675 11.5325 2.07 11.685C2.453 11.833 2.888 11.9345 3.5265 11.964C4.1665 11.994 4.37 12 6 12C7.63 12 7.8335 11.9925 8.4735 11.964C9.112 11.934 9.5475 11.833 9.93 11.685C10.324 11.532 10.6595 11.326 10.993 10.993C11.326 10.6595 11.5325 10.3255 11.685 9.93C11.833 9.5475 11.9345 9.112 11.964 8.4735C11.994 7.8335 12 7.63 12 6C12 4.37 11.9925 4.1665 11.964 3.5265C11.934 2.888 11.833 2.452 11.685 2.07C11.532 1.6755 11.326 1.3405 10.993 1.007C10.6595 0.6735 10.3255 0.4675 9.93 0.315C9.5475 0.1665 9.112 0.0655 8.4735 0.036C7.8335 0.006 7.63 0 6 0ZM6 1.08C7.6015 1.08 7.7925 1.088 8.425 1.1155C9.01 1.143 9.3275 1.24 9.5385 1.323C9.8195 1.4315 10.0185 1.5615 10.2295 1.771C10.439 1.981 10.569 2.1805 10.6775 2.4615C10.7595 2.6725 10.8575 2.99 10.884 3.575C10.9125 4.208 10.919 4.398 10.919 6C10.919 7.602 10.9115 7.7925 10.882 8.425C10.8515 9.01 10.754 9.3275 10.6715 9.5385C10.5595 9.8195 10.432 10.0185 10.222 10.2295C10.0125 10.439 9.81 10.569 9.532 10.6775C9.322 10.7595 8.9995 10.8575 8.4145 10.884C7.7775 10.9125 7.59 10.919 5.985 10.919C4.3795 10.919 4.192 10.9115 3.5555 10.882C2.97 10.8515 2.6475 10.754 2.4375 10.6715C2.153 10.5595 1.9575 10.432 1.748 10.222C1.5375 10.0125 1.403 9.81 1.298 9.532C1.2155 9.322 1.1185 8.9995 1.088 8.4145C1.0655 7.7845 1.0575 7.59 1.0575 5.9925C1.0575 4.3945 1.0655 4.1995 1.088 3.562C1.1185 2.977 1.2155 2.655 1.298 2.445C1.403 2.16 1.5375 1.965 1.748 1.7545C1.9575 1.545 2.153 1.41 2.4375 1.3055C2.6475 1.2225 2.963 1.125 3.548 1.095C4.1855 1.0725 4.373 1.065 5.9775 1.065L6 1.08ZM6 2.919C4.2975 2.919 2.919 4.299 2.919 6C2.919 7.7025 4.299 9.081 6 9.081C7.7025 9.081 9.081 7.701 9.081 6C9.081 4.2975 7.701 2.919 6 2.919ZM6 8C4.895 8 4 7.105 4 6C4 4.895 4.895 4 6 4C7.105 4 8 4.895 8 6C8 7.105 7.105 8 6 8ZM9.923 2.7975C9.923 3.195 9.6 3.5175 9.203 3.5175C8.8055 3.5175 8.483 3.1945 8.483 2.7975C8.483 2.4005 8.806 2.078 9.203 2.078C9.5995 2.0775 9.923 2.4005 9.923 2.7975Z" fill="black"/>
</svg>
