<svg xmlns="http://www.w3.org/2000/svg" width="135.69mm" height="42.91mm" viewBox="0 0 384.63 121.63">
  <defs>
    <style>
      .a {
        fill: #ff900d;
      }

      .b {
        fill: #00904c;
      }
    </style>
  </defs>
  <title>logo</title>
  <g>
    <g>
      <polygon class="a" points="136.98 39.76 175.09 13.01 213.2 39.76 234.09 39.76 178.82 0 133.73 31.65 0 31.65 0 39.76 136.98 39.76"/>
      <polygon class="a" points="252.46 31.65 207.37 0 198.14 0 186.48 0 241.75 39.76 262.64 39.76 384.63 39.76 384.63 31.65 252.46 31.65"/>
    </g>
    <g>
      <path class="b" d="M379,98.86V62.44H339.84a151.91,151.91,0,0,1-2.14,23.77c-2.06,11-3.87,12.65-3.87,12.65H328.3v22.77h15.93v-6.52H368.7v6.52h15.93V98.86Zm-17.31-20v20H351.34a32.83,32.83,0,0,0,2.43-8.7c.76-5.26,1.19-11.27,1.19-11.27Z"/>
      <polygon class="b" points="175.77 115.11 193.22 115.11 193.22 77.96 210.45 77.96 210.45 62.44 175.77 62.44 175.77 115.11"/>
      <path class="b" d="M264.81,80a19.26,19.26,0,0,0-19.34-17.55H221v52.67h16.75V100.47h8.09A19,19,0,0,0,264.81,80Zm-16.5,1.46a3.81,3.81,0,0,1-3.85,3.85h-6.7V77.6h6.7A3.79,3.79,0,0,1,248.31,81.45Z"/>
      <polygon class="b" points="58.26 77.96 73.72 77.96 73.72 115.11 91.17 115.11 91.17 77.96 106.63 77.96 106.63 62.44 58.26 62.44 58.26 77.96"/>
      <path class="b" d="M302.54,115.07l18.46,0L302.83,62.44l-19.42,0-18.74,52.67,18.48,0,2.06-7.37h15.12Zm-13.77-20,3.74-13.33,4,13.33Z"/>
      <path class="b" d="M139.52,61.75a27,27,0,1,0,27.38,27A27.21,27.21,0,0,0,139.52,61.75Zm0,36.94a9.92,9.92,0,1,1,10-9.92A10,10,0,0,1,139.52,98.69Z"/>
      <path class="b" d="M40.11,94.79l-1.26.93a15.79,15.79,0,0,1-10.34,3.61,10.59,10.59,0,0,1-9-5.11,9.48,9.48,0,0,1-1.15-2.7,10.62,10.62,0,0,1,2.75-10.21,10.45,10.45,0,0,1,7.43-3.09,15.79,15.79,0,0,1,10.34,3.61l1.26.93L50.39,72.37l-1.1-1.2a27.69,27.69,0,0,0-20.46-9.44C10.78,61.73,0,75.48,0,88.78s10.78,27,28.83,27a27.68,27.68,0,0,0,20.46-9.44l1.1-1.21Z"/>
    </g>
  </g>
</svg>
