<svg width="12" height="18" viewBox="0 0 12 18" fill="none" xmlns="http://www.w3.org/2000/svg">
<path d="M7.98468 10.0263C7.94032 10.2701 7.99645 10.7295 8.09965 10.9522L10.7362 16.6733C10.8699 16.9662 11.0245 17.298 10.7948 17.6578C10.6588 17.8708 10.4223 18 10.1713 18C9.72842 18 9.52926 17.6637 9.36745 17.3953L6.10968 11.9201L5.22616 13.7118C5.01999 14.1325 4.60968 14.728 4.29465 15.0677L2.51855 16.9825C2.28658 17.2312 2.10553 17.4256 1.76561 17.4256C1.48272 17.4256 1.22472 17.2624 1.10003 17.0072C0.893855 16.5747 1.14461 16.2617 1.3673 15.9863L3.12122 13.8125C3.30793 13.5794 3.55642 13.1035 3.63971 12.8154L4.29126 10.5396C4.38495 10.2056 4.49517 9.61126 4.52323 9.26636L4.81042 5.77186C3.39076 6.24237 2.00143 8.09632 1.53093 8.87257C1.33064 9.19665 1.16249 9.47615 0.739963 9.47728H0.7377C0.47993 9.47728 0.236191 9.33968 0.105609 9.11359C-0.113009 8.74448 0.0469936 8.45367 0.231665 8.12031C0.339616 7.92704 2.96145 3.30211 6.49939 3.58048C8.02745 3.71129 8.51493 4.8596 8.83833 5.61955C8.91211 5.79585 8.98589 5.96875 9.0703 6.12219L11.0883 9.77081C11.2807 10.1198 11.1646 10.5724 10.8235 10.7738C10.4791 10.9755 10.0455 10.8818 9.83433 10.5441L8.33207 8.14633L7.98468 10.0263ZM8.86119 1.42326C9.01372 2.34843 8.38548 3.22087 7.4619 3.37204C6.53605 3.52435 5.66452 2.89565 5.51448 1.97162C5.36217 1.04645 5.98792 0.174018 6.91128 0.0228415C7.8369 -0.129693 8.70888 0.497872 8.86119 1.42326Z" fill="#252525"/>
</svg>
