<svg width="12" height="12" viewBox="0 0 12 12" fill="none" xmlns="http://www.w3.org/2000/svg">
<path d="M10.4054 1.16998C10.1054 0.89498 8.90539 0.01998 6.22039 0.00997998C6.22039 0.00997998 3.05539 -0.18002 1.51039 1.23498C0.650393 2.08998 0.350393 3.34998 0.315393 4.90998C0.285393 6.46498 0.250393 9.38498 3.06539 10.18V11.39C3.06539 11.39 3.04539 11.875 3.36539 11.975C3.76039 12.1 3.98539 11.725 4.36039 11.325L5.06039 10.535C6.98539 10.695 8.46039 10.325 8.63039 10.27C9.02039 10.145 11.2204 9.86498 11.5804 6.94498C11.9504 3.92998 11.4004 2.02998 10.4104 1.16998H10.4054ZM10.7354 6.72498C10.4354 9.16498 8.65039 9.31998 8.32039 9.42498C8.18039 9.46998 6.88039 9.78998 5.24539 9.68498C5.24539 9.68498 4.02539 11.155 3.64539 11.535C3.58539 11.6 3.51539 11.62 3.47039 11.61C3.40539 11.595 3.38539 11.515 3.39039 11.405L3.40039 9.39498C1.01539 8.73498 1.15539 6.24498 1.18039 4.94498C1.21039 3.64498 1.45539 2.57998 2.18039 1.85998C3.48539 0.67998 6.17539 0.85998 6.17539 0.85998C8.44539 0.86498 9.53039 1.54998 9.78539 1.77998C10.6204 2.49498 11.0504 4.20998 10.7354 6.72998" fill="black"/>
<path d="M7.32532 4.99018C7.28639 4.99021 7.24898 4.97509 7.22099 4.94803C7.19299 4.92097 7.17662 4.88409 7.17532 4.84518C7.14532 4.33018 6.90532 4.08018 6.41032 4.05518C6.39029 4.0542 6.37066 4.04928 6.35253 4.04071C6.33441 4.03213 6.31815 4.02007 6.30468 4.00522C6.29122 3.99036 6.28081 3.97299 6.27406 3.95411C6.26731 3.93524 6.26434 3.91521 6.26532 3.89518C6.26631 3.87516 6.27123 3.85552 6.2798 3.8374C6.28837 3.81927 6.30043 3.80301 6.31529 3.78955C6.33015 3.77608 6.34751 3.76568 6.36639 3.75892C6.38527 3.75217 6.40529 3.7492 6.42532 3.75018C7.07532 3.78518 7.44032 4.16018 7.47532 4.83018C7.47668 4.85029 7.47396 4.87047 7.46735 4.88951C7.46073 4.90854 7.45034 4.92605 7.43681 4.94098C7.42327 4.95592 7.40687 4.96797 7.38857 4.97643C7.37028 4.98488 7.35047 4.98956 7.33032 4.99018H7.32532Z" fill="black"/>
<path d="M8.10049 5.25027C8.06071 5.25027 8.02255 5.23447 7.99442 5.20634C7.96629 5.17821 7.95049 5.14006 7.95049 5.10027C7.96514 4.86688 7.93287 4.63292 7.85558 4.41222C7.77829 4.19151 7.65755 3.98853 7.50049 3.81527C7.15237 3.45574 6.67586 3.24896 6.17549 3.24027C6.13571 3.23762 6.09861 3.21928 6.07235 3.18927C6.0461 3.15926 6.03284 3.12006 6.03549 3.08027C6.03814 3.04049 6.05649 3.00339 6.08649 2.97714C6.1165 2.95088 6.15571 2.93762 6.19549 2.94027C6.84549 2.98527 7.35549 3.21027 7.72049 3.61027C8.08549 4.01027 8.27049 4.51027 8.25549 5.10527C8.25549 5.12497 8.25161 5.14448 8.24407 5.16268C8.23653 5.18088 8.22548 5.19741 8.21156 5.21134C8.19763 5.22527 8.18109 5.23632 8.16289 5.24386C8.14469 5.25139 8.12519 5.25527 8.10549 5.25527" fill="black"/>
<path d="M8.90051 5.56539C8.86073 5.56539 8.82258 5.54959 8.79445 5.52146C8.76631 5.49333 8.75051 5.45517 8.75051 5.41539C8.74051 4.48539 8.47551 3.77539 7.93051 3.24539C7.66379 2.98638 7.34839 2.78276 7.00254 2.64631C6.65669 2.50986 6.28724 2.44327 5.91551 2.45039C5.87573 2.45039 5.83758 2.43459 5.80945 2.40646C5.78132 2.37833 5.76551 2.34017 5.76551 2.30039C5.76551 2.21539 5.83551 2.15039 5.91551 2.15039C6.80051 2.15039 7.55051 2.45039 8.14551 3.03039C8.44999 3.34491 8.68725 3.71812 8.84284 4.12729C8.99843 4.53647 9.06909 4.97303 9.05051 5.41039C9.05051 5.45017 9.03471 5.48833 9.00658 5.51646C8.97845 5.54459 8.94029 5.56039 8.90051 5.56039V5.56539ZM6.45051 6.87039C6.45051 6.87039 6.66051 6.89039 6.77551 6.75039L7.00051 6.46539C7.10551 6.32539 7.36551 6.24039 7.62051 6.38039C8.00296 6.6016 8.36298 6.85948 8.69551 7.15039C8.86051 7.29039 8.90051 7.49539 8.78551 7.71039V7.71539C8.67051 7.92039 8.51551 8.11539 8.32051 8.29039C8.16847 8.42779 7.9749 8.5105 7.77051 8.52539C7.70551 8.52539 7.64051 8.51539 7.57051 8.49539V8.49039C7.33051 8.42039 6.93051 8.25039 6.27051 7.89039C5.69338 7.57086 5.15911 7.1794 4.68051 6.72539L4.66551 6.71039L4.65051 6.69539L4.63051 6.68039L4.61551 6.66039C4.16269 6.18381 3.77284 5.65113 3.45551 5.07539C3.21071 4.66417 3.00962 4.22847 2.85551 3.77539L2.84551 3.77039C2.81736 3.68334 2.80882 3.59113 2.82051 3.50039C2.84051 3.34539 2.91551 3.18539 3.05051 3.02539C3.23051 2.82539 3.42051 2.67539 3.62551 2.55539H3.63051C3.84551 2.44039 4.05051 2.48039 4.19051 2.64539C4.48169 2.9777 4.73959 3.33775 4.96051 3.72039C5.10551 3.97539 5.01051 4.23539 4.87551 4.34539L4.59551 4.57039C4.45051 4.68039 4.47051 4.89539 4.47051 4.89539C4.47051 4.89539 4.88551 6.47539 6.44551 6.87539" fill="black"/>
</svg>
