<svg width="16" height="11" viewBox="0 0 16 11" fill="none" xmlns="http://www.w3.org/2000/svg">
<path d="M0.5 9.38197V2.61803C0.5 2.42865 0.607001 2.25552 0.776393 2.17082L3.77639 0.67082C3.91716 0.600438 4.08284 0.600438 4.22361 0.67082L7.32918 2.22361C7.75147 2.43475 8.24853 2.43475 8.67082 2.22361L11.7764 0.67082C11.9172 0.600438 12.0828 0.600438 12.2236 0.67082L15.2236 2.17082C15.393 2.25552 15.5 2.42865 15.5 2.61803V9.38197C15.5 9.75366 15.1088 9.9954 14.7764 9.82918L12.6708 8.77639C12.2485 8.56525 11.7515 8.56525 11.3292 8.77639L8.22361 10.3292C8.08284 10.3996 7.91716 10.3996 7.77639 10.3292L4.67082 8.77639C4.24853 8.56525 3.75147 8.56525 3.32918 8.77639L1.22361 9.82918C0.891156 9.99541 0.5 9.75366 0.5 9.38197Z" stroke="white"/>
<path d="M4 1V8" stroke="white" stroke-linecap="round" stroke-dasharray="0.1 1.5"/>
<path d="M8 3V10" stroke="white" stroke-linecap="round" stroke-dasharray="0.1 1.5"/>
<path d="M12 1V8" stroke="white" stroke-linecap="round" stroke-dasharray="0.1 1.5"/>
</svg>
