<svg width="29" height="17" viewBox="0 0 29 17" fill="none" xmlns="http://www.w3.org/2000/svg">
<path fill-rule="evenodd" clip-rule="evenodd" d="M7 16C7 16 14 12 14 7C14 3.13401 10.866 0 7 0C3.13401 0 0 3.13401 0 7C0 12 7 16 7 16ZM7 10C8.65685 10 10 8.65685 10 7C10 5.34315 8.65685 4 7 4C5.34315 4 4 5.34315 4 7C4 8.65685 5.34315 10 7 10Z" fill="#252525"/>
<path fill-rule="evenodd" clip-rule="evenodd" d="M25.4999 8.99986C25.4999 8.99986 28.9999 6.9999 28.9999 4.49994C28.9999 2.56698 27.4329 1 25.4999 1C23.567 1 22 2.56698 22 4.49994C22 6.9999 25.4999 8.99986 25.4999 8.99986ZM25.5001 5.99977C26.3285 5.99977 27.0001 5.32821 27.0001 4.49979C27.0001 3.67138 26.3285 2.99982 25.5001 2.99982C24.6717 2.99982 24.0002 3.67138 24.0002 4.49979C24.0002 5.32821 24.6717 5.99977 25.5001 5.99977Z" fill="#252525"/>
<path d="M7 16C7 16 23 16.5 23 14C23 11.5 15 13 15 11C15 9 25.5 9 25.5 9" stroke="#252525" stroke-linecap="round"/>
</svg>
