<svg width="56" height="56" viewBox="0 0 56 56" fill="none" xmlns="http://www.w3.org/2000/svg">
<path d="M28 2.3351L35.1273 17.3746L35.3612 17.8682L35.9029 17.9381L52.4088 20.0691L40.3078 31.495L39.9107 31.87L40.0115 32.4068L43.0854 48.7633L28.4794 40.7854L28 40.5236L27.5206 40.7854L12.9145 48.7633L15.9885 32.4068L16.0893 31.87L15.6922 31.495L3.59122 20.0691L20.0971 17.9381L20.6388 17.8682L20.8727 17.3746L28 2.3351Z" stroke="#101010" stroke-width="2"/>
<line x1="34" y1="43.6464" x2="41" y2="36.6464" stroke="black"/>
<line x1="38" y1="45.6464" x2="42" y2="41.6464" stroke="black"/>
<line x1="30" y1="41.6464" x2="51" y2="20.6464" stroke="black"/>
<path d="M28 37.6465L46 19.6465" stroke="black"/>
<line x1="28" y1="31.6464" x2="41" y2="18.6464" stroke="black"/>
<line x1="28" y1="25.6464" x2="36" y2="17.6464" stroke="black"/>
<line x1="28" y1="19.6464" x2="34" y2="13.6464" stroke="black"/>
<line x1="28" y1="13.6464" x2="31" y2="10.6464" stroke="black"/>
<line x1="28" y1="7.64645" x2="30" y2="5.64645" stroke="black"/>
</svg>
