<svg width="100" height="32" viewBox="0 0 100 32" fill="none" xmlns="http://www.w3.org/2000/svg">
<path d="M98.5 25.7196V15.6761H87.875C87.875 15.6761 87.875 19.1341 87.3 22.2362C86.75 25.2619 86.25 25.7196 86.25 25.7196H84.75V32H89.075V30.1947H95.7V32H100V25.7196H98.5ZM93.8 20.202V25.7196H90.975C90.975 25.7196 91.425 24.7788 91.625 23.3295C91.825 21.8802 91.95 20.2275 91.95 20.2275H93.8V20.202Z" fill="#00914C"/>
<path d="M45.6748 30.1947H50.4248V19.9478H55.0998V15.6761H45.6748V30.1947Z" fill="#00914C"/>
<path d="M69.1748 20.5072C68.9748 17.7611 66.6498 15.6761 63.9248 15.6761H57.2998V30.1947H61.8498V26.1519H64.0498C66.9998 26.1519 69.3998 23.5838 69.1748 20.5072ZM64.6998 20.914C64.6998 21.4734 64.2748 21.9819 63.6498 21.9819H61.8248V19.8461H63.6498C64.2748 19.8461 64.6998 20.3546 64.6998 20.914Z" fill="#00914C"/>
<path d="M15.1494 19.9478H19.3244V30.1947H24.0744V19.9478H28.2494V15.6761H15.1494V19.9478Z" fill="#00914C"/>
<path d="M7.79999 20.1766C9.09999 20.1766 9.79999 20.6343 10.475 21.1174L10.8 21.3717L13.65 18.4222L13.35 18.0917C11.85 16.3881 9.89999 15.4727 7.82499 15.4727C2.925 15.4727 0 19.2613 0 22.9482C0 26.6096 2.925 30.3982 7.82499 30.3982C9.89999 30.3982 11.875 29.4828 13.375 27.8046L13.675 27.4741L10.8 24.5246L10.475 24.7789C9.79999 25.2874 9.09999 25.7197 7.79999 25.7197C6.84999 25.7197 5.99999 25.2366 5.475 24.372C5.35 24.1432 5.25 23.9144 5.175 23.6601C4.925 22.6685 5.2 21.6768 5.875 20.9649C6.39999 20.4563 7.09999 20.1766 7.79999 20.1766Z" fill="#00914C"/>
<path d="M78.4 30.1947H83.4L78.475 15.6761H73.2L68.125 30.2201H73.15L73.7 28.186H77.8L78.4 30.1947ZM74.675 24.6771L75.7 20.9903L76.8 24.6771H74.675Z" fill="#00914C"/>
<path d="M35.8868 10.2244L45.6069 3.34211L55.3269 10.2244H60.6778L46.5641 0L35.0523 8.14484H2.30859V10.2244H35.8868Z" fill="#FF910D"/>
<path d="M65.3657 8.14484L53.8538 0H51.4975H48.5029L62.6166 10.2244H67.9675H97.6185V8.14484H65.3657Z" fill="#FF910D"/>
<path d="M36.5246 15.4727C32.4246 15.4727 29.0996 18.8036 29.0996 22.9227C29.0996 27.0418 32.4246 30.3727 36.5246 30.3727C40.6246 30.3727 43.9496 27.0418 43.9496 22.9227C43.9496 18.829 40.6246 15.4727 36.5246 15.4727ZM36.5246 25.6688C35.0246 25.6688 33.7996 24.4483 33.7996 22.9227C33.7996 21.4226 35.0246 20.1766 36.5246 20.1766C38.0246 20.1766 39.2496 21.3971 39.2496 22.9227C39.2496 24.4483 38.0246 25.6688 36.5246 25.6688Z" fill="#00914C"/>
</svg>
