<svg width="12" height="12" viewBox="0 0 12 12" fill="none" xmlns="http://www.w3.org/2000/svg">
<path fill-rule="evenodd" clip-rule="evenodd" d="M3.15603 6.85774L4.09399 9.94417C4.12063 10.0177 4.13867 10.0814 4.1542 10.1365C4.21035 10.3355 4.23382 10.4185 4.51349 10.4185C4.78134 10.4185 4.90368 10.2996 5.05255 10.1549L6.39044 8.85505L9.14557 10.8907C9.65307 11.1707 10.0196 11.0262 10.1456 10.4195L11.9556 1.89314C12.1416 1.14949 11.6736 0.81355 11.1886 1.03303L0.747708 5.05989L0.733426 5.06526L0.722012 5.06965L0.716214 5.07185L0.561581 5.13167C-0.163425 5.42268 -0.159915 5.82771 0.429593 6.00813L3.15603 6.85774ZM6.30224 7.5467L4.8417 8.96541L3.95892 6.06062L2.28476 5.53889L10.8616 2.23103L9.26803 9.73787L6.30224 7.5467Z" fill="black"/>
</svg>
