<svg width="12" height="12" viewBox="0 0 12 12" fill="none" xmlns="http://www.w3.org/2000/svg">
<path d="M8.749 7.191C8.5985 7.116 7.8655 6.7575 7.729 6.708C7.5925 6.6575 7.4925 6.633 7.3925 6.783C7.294 6.9305 7.007 7.265 6.9205 7.364C6.833 7.4615 6.746 7.469 6.5975 7.4015C6.4475 7.3265 5.966 7.169 5.396 6.659C4.952 6.2615 4.654 5.774 4.566 5.624C4.479 5.474 4.5565 5.3915 4.631 5.3165C4.699 5.249 4.7815 5.144 4.8565 5.055C4.9295 4.9645 4.9535 4.9045 5.005 4.807C5.055 4.702 5.0295 4.6195 4.9925 4.545C4.955 4.47 4.6565 3.735 4.5315 3.442C4.4115 3.15 4.288 3.187 4.1955 3.187C4.1095 3.1795 4.01 3.1795 3.91 3.1795C3.81 3.1795 3.6485 3.2165 3.5115 3.359C3.375 3.509 2.989 3.869 2.989 4.5965C2.989 5.324 3.524 6.029 3.5985 6.134C3.673 6.2315 4.651 7.7315 6.1485 8.3765C6.5055 8.5265 6.7835 8.6165 7.0005 8.691C7.3575 8.8045 7.683 8.7885 7.9405 8.7515C8.2275 8.706 8.824 8.391 8.9485 8.0385C9.076 7.686 9.076 7.3935 9.0385 7.326C9.0015 7.2585 8.9035 7.221 8.7535 7.1535L8.749 7.191ZM6.0305 10.875H6.0225C5.1375 10.875 4.2605 10.635 3.495 10.185L3.315 10.078L1.44 10.5655L1.9425 8.743L1.823 8.5555C1.328 7.7675 1.065 6.86 1.065 5.9255C1.065 3.203 3.2925 0.983 6.036 0.983C7.363 0.983 8.6085 1.5005 9.5465 2.438C10.484 3.3675 11.001 4.613 11.001 5.933C10.999 8.655 8.771 10.8755 6.0335 10.8755L6.0305 10.875ZM10.26 1.7245C9.12 0.6225 7.62 0 6.0225 0C2.7315 0 0.052 2.667 0.0505 5.9465C0.0505 6.9945 0.325 8.0165 0.848 8.919L0 12L3.1675 11.174C4.0405 11.6455 5.0225 11.896 6.0225 11.8975H6.0255C9.318 11.8975 11.9985 9.2295 12 5.9495C12 4.3615 11.38 2.867 10.2525 1.744" fill="black"/>
</svg>
