<svg width="12" height="10" viewBox="0 0 12 10" fill="none" xmlns="http://www.w3.org/2000/svg">
<path d="M11.749 2.10212C11.6795 1.85301 11.5469 1.62603 11.364 1.44315C11.1811 1.26026 10.9541 1.12765 10.705 1.05812C9.77001 0.807624 6.00701 0.807624 6.00701 0.807624C6.00701 0.807624 2.25351 0.802624 1.30901 1.05812C1.0599 1.12765 0.832924 1.26026 0.650039 1.44315C0.467154 1.62603 0.33454 1.85301 0.265014 2.10212C0.0877746 3.05938 0.00039452 4.03111 0.00401425 5.00462C0.00107881 5.97447 0.088456 6.94248 0.265014 7.89612C0.33454 8.14524 0.467154 8.37221 0.650039 8.5551C0.832924 8.73798 1.0599 8.8706 1.30901 8.94012C2.24301 9.19112 6.00701 9.19112 6.00701 9.19112C6.00701 9.19112 9.76001 9.19112 10.705 8.94012C10.9541 8.8706 11.1811 8.73798 11.364 8.5551C11.5469 8.37221 11.6795 8.14524 11.749 7.89612C11.9219 6.94214 12.0056 5.97413 11.999 5.00462C12.0063 4.03145 11.9226 3.05973 11.749 2.10212ZM4.80601 6.80012V3.20362L7.93801 5.00462L4.80601 6.80012Z" fill="black"/>
</svg>
